<svg width="21" height="18" viewBox="0 0 21 18" fill="none" xmlns="http://www.w3.org/2000/svg">
<path d="M20.25 0.75H0.75C0.335156 0.75 0 1.08516 0 1.5V16.5C0 16.9148 0.335156 17.25 0.75 17.25H20.25C20.6648 17.25 21 16.9148 21 16.5V1.5C21 1.08516 20.6648 0.75 20.25 0.75ZM18.0352 2.43984L10.5 8.29688L2.96484 2.43984H18.0352ZM19.3125 3.34687V15.5625H1.6875V3.34687L1.04063 2.84297L1.68516 3.34453L9.69141 9.56953C9.92165 9.74841 10.2049 9.84551 10.4965 9.84551C10.7881 9.84551 11.0713 9.74841 11.3016 9.56953L19.3125 3.34687ZM19.3125 3.34687L19.9594 2.84297L19.0383 1.65938H19.0406L19.9617 2.84297L19.3125 3.34687Z" fill="#AA1F22"/>
</svg>
