<svg width="22" height="18" viewBox="0 0 22 18" fill="none" xmlns="http://www.w3.org/2000/svg">
<path d="M20.75 0.75H1.25C0.835156 0.75 0.5 1.08516 0.5 1.5V16.5C0.5 16.9148 0.835156 17.25 1.25 17.25H20.75C21.1648 17.25 21.5 16.9148 21.5 16.5V1.5C21.5 1.08516 21.1648 0.75 20.75 0.75ZM18.5352 2.43984L11 8.29688L3.46484 2.43984H18.5352ZM19.8125 3.34687V15.5625H2.1875V3.34687L1.54063 2.84297L2.18516 3.34453L10.1914 9.56953C10.4217 9.74841 10.7049 9.84551 10.9965 9.84551C11.2881 9.84551 11.5713 9.74841 11.8016 9.56953L19.8125 3.34687ZM19.8125 3.34687L20.4594 2.84297L19.5383 1.65938H19.5406L20.4617 2.84297L19.8125 3.34687Z" fill="#AA1F22"/>
</svg>
