<svg width="18" height="16" viewBox="0 0 18 16" fill="none" xmlns="http://www.w3.org/2000/svg">
<path opacity="0.2" d="M16.875 9.625V14.625C16.875 14.7908 16.8092 14.9497 16.6919 15.0669C16.5747 15.1842 16.4158 15.25 16.25 15.25H1.25C1.08424 15.25 0.925268 15.1842 0.808058 15.0669C0.690848 14.9497 0.625 14.7908 0.625 14.625V9.625C0.625 9.45924 0.690848 9.30027 0.808058 9.18306C0.925268 9.06585 1.08424 9 1.25 9H16.25C16.4158 9 16.5747 9.06585 16.6919 9.18306C16.8092 9.30027 16.875 9.45924 16.875 9.625Z" fill="#231F20" fill-opacity="0.6"/>
<path d="M17.5 9.62452V14.6245C17.5 14.956 17.3683 15.274 17.1339 15.5084C16.8995 15.7428 16.5815 15.8745 16.25 15.8745H1.25C0.918479 15.8745 0.600537 15.7428 0.366116 15.5084C0.131696 15.274 0 14.956 0 14.6245V9.62452C0 9.29299 0.131696 8.97505 0.366116 8.74063C0.600537 8.50621 0.918479 8.37452 1.25 8.37452H5C5.16576 8.37452 5.32473 8.44036 5.44194 8.55757C5.55915 8.67478 5.625 8.83376 5.625 8.99952C5.625 9.16528 5.55915 9.32425 5.44194 9.44146C5.32473 9.55867 5.16576 9.62452 5 9.62452H1.25V14.6245H16.25V9.62452H12.5C12.3342 9.62452 12.1753 9.55867 12.0581 9.44146C11.9408 9.32425 11.875 9.16528 11.875 8.99952C11.875 8.83376 11.9408 8.67478 12.0581 8.55757C12.1753 8.44036 12.3342 8.37452 12.5 8.37452H16.25C16.5815 8.37452 16.8995 8.50621 17.1339 8.74063C17.3683 8.97505 17.5 9.29299 17.5 9.62452ZM5.44219 5.0667L8.125 2.38311V8.99952C8.125 9.16528 8.19085 9.32425 8.30806 9.44146C8.42527 9.55867 8.58424 9.62452 8.75 9.62452C8.91576 9.62452 9.07473 9.55867 9.19194 9.44146C9.30915 9.32425 9.375 9.16528 9.375 8.99952V2.38311L12.0578 5.0667C12.1751 5.18398 12.3341 5.24986 12.5 5.24986C12.6659 5.24986 12.8249 5.18398 12.9422 5.0667C13.0595 4.94943 13.1253 4.79037 13.1253 4.62452C13.1253 4.45866 13.0595 4.2996 12.9422 4.18233L9.19219 0.432328C9.13414 0.374217 9.06521 0.328118 8.98934 0.296665C8.91346 0.265213 8.83213 0.249023 8.75 0.249023C8.66787 0.249023 8.58654 0.265213 8.51066 0.296665C8.43479 0.328118 8.36586 0.374217 8.30781 0.432328L4.55781 4.18233C4.44054 4.2996 4.37465 4.45866 4.37465 4.62452C4.37465 4.79037 4.44054 4.94943 4.55781 5.0667C4.67509 5.18398 4.83415 5.24986 5 5.24986C5.16585 5.24986 5.32491 5.18398 5.44219 5.0667Z" fill="#231F20" fill-opacity="0.6"/>
</svg>
