<svg width="34" height="26" viewBox="0 0 34 26" fill="none" xmlns="http://www.w3.org/2000/svg">
<path id="&#226;&#128;&#156;" d="M7.53104 25.2905C5.49059 25.2905 3.83272 24.5891 2.55744 23.1863C1.34592 21.7197 0.740166 19.7112 0.740166 17.1606C0.740166 13.5898 1.98357 10.2103 4.47036 7.02211C6.95716 3.83391 10.2729 1.7297 14.4176 0.709473L14.7045 1.47464V1.57029C12.2177 2.33546 10.0816 3.77015 8.29621 5.87436C6.51081 7.91482 5.55435 10.2422 5.42683 12.8565C6.12823 12.6652 6.8934 12.5696 7.72233 12.5696C9.57149 12.5696 11.1018 13.1435 12.3133 14.2912C13.5249 15.3752 14.1306 16.8099 14.1306 18.5953C14.1306 20.4445 13.493 22.0386 12.2177 23.3776C10.9424 24.6529 9.3802 25.2905 7.53104 25.2905ZM26.0864 25.2905C24.1097 25.2905 22.4837 24.5572 21.2084 23.0907C19.9331 21.6241 19.2955 19.6474 19.2955 17.1606C19.2955 13.5898 20.5389 10.2103 23.0257 7.02211C25.5125 3.83391 28.8282 1.7297 32.9729 0.709473L33.2598 1.47464V1.57029C30.773 2.33546 28.6369 3.77015 26.8516 5.87436C25.1299 7.91482 24.2053 10.2422 24.0778 12.8565C24.6517 12.6652 25.385 12.5696 26.2777 12.5696C28.1906 12.5696 29.7209 13.1435 30.8687 14.2912C32.0802 15.3752 32.686 16.8099 32.686 18.5953C32.686 20.4445 32.0483 22.0386 30.773 23.3776C29.4978 24.6529 27.9355 25.2905 26.0864 25.2905Z" fill="#AA1F22"/>
</svg>
