<svg width="20" height="20" viewBox="0 0 20 20" fill="none" xmlns="http://www.w3.org/2000/svg">
<path d="M19.5348 18.4655L15.4754 14.4155C16.9081 12.7098 17.627 10.5169 17.4821 8.29403C17.3372 6.07119 16.3398 3.99008 14.6979 2.48476C13.0559 0.979436 10.8962 0.16612 8.66915 0.214438C6.44211 0.262757 4.31971 1.16898 2.74459 2.7441C1.16947 4.31922 0.263245 6.44163 0.214927 8.66866C0.166608 10.8957 0.979924 13.0554 2.48525 14.6974C3.99057 16.3393 6.07167 17.3367 8.29451 17.4816C10.5174 17.6265 12.7103 16.9076 14.416 15.4749L18.466 19.5343C18.6094 19.6729 18.801 19.7504 19.0004 19.7504C19.1998 19.7504 19.3914 19.6729 19.5348 19.5343C19.6756 19.3921 19.7546 19.2 19.7546 18.9999C19.7546 18.7998 19.6756 18.6077 19.5348 18.4655ZM1.75039 8.8749C1.75039 7.46571 2.16826 6.08816 2.95117 4.91646C3.73407 3.74476 4.84685 2.83153 6.14877 2.29226C7.45069 1.75299 8.88329 1.61189 10.2654 1.88681C11.6475 2.16173 12.9171 2.84032 13.9135 3.83677C14.91 4.83322 15.5886 6.10277 15.8635 7.48488C16.1384 8.867 15.9973 10.2996 15.458 11.6015C14.9188 12.9034 14.0055 14.0162 12.8338 14.7991C11.6621 15.582 10.2846 15.9999 8.87539 15.9999C6.98648 15.9974 5.17565 15.246 3.83999 13.9103C2.50433 12.5746 1.75287 10.7638 1.75039 8.8749Z" fill="#020202"/>
</svg>
