<svg width="18" height="16" viewBox="0 0 18 16" fill="none" xmlns="http://www.w3.org/2000/svg">
<path d="M17.9924 14.5748L16.834 4.32621C16.7998 4.01269 16.6492 3.72283 16.4113 3.51279C16.1733 3.30274 15.8649 3.18746 15.5459 3.18926H12.8319C12.6759 2.29658 12.2059 1.48705 11.5048 0.903522C10.8037 0.319999 9.91659 0 9 0C8.08341 0 7.19628 0.319999 6.49517 0.903522C5.79406 1.48705 5.32405 2.29658 5.16808 3.18926H2.45415C2.1351 3.18746 1.82672 3.30274 1.58875 3.51279C1.35078 3.72283 1.20015 4.01269 1.16604 4.32621L0.00755598 14.5748C-0.012065 14.7547 0.00663005 14.9367 0.0624392 15.1091C0.118248 15.2815 0.209936 15.4404 0.331608 15.5756C0.452874 15.7096 0.60148 15.8167 0.767645 15.8899C0.933809 15.963 1.11376 16.0005 1.29566 16H16.7043C16.8862 16.0005 17.0662 15.963 17.2324 15.8899C17.3985 15.8167 17.5471 15.7096 17.6684 15.5756C17.7901 15.4404 17.8818 15.2815 17.9376 15.1091C17.9934 14.9367 18.0121 14.7547 17.9924 14.5748ZM9 1.26765C9.5746 1.26874 10.1327 1.45787 10.587 1.80552C11.0414 2.15317 11.3664 2.63975 11.5114 3.18926H6.4886C6.63359 2.63975 6.95864 2.15317 7.41299 1.80552C7.86734 1.45787 8.4254 1.26874 9 1.26765ZM1.29566 14.7189L2.45415 4.47034H5.11138V6.39195C5.11138 6.56183 5.17966 6.72475 5.3012 6.84487C5.42274 6.965 5.58759 7.03248 5.75948 7.03248C5.93137 7.03248 6.09622 6.965 6.21776 6.84487C6.3393 6.72475 6.40758 6.56183 6.40758 6.39195V4.47034H11.5924V6.39195C11.5924 6.56183 11.6607 6.72475 11.7822 6.84487C11.9038 6.965 12.0686 7.03248 12.2405 7.03248C12.4124 7.03248 12.5773 6.965 12.6988 6.84487C12.8203 6.72475 12.8886 6.56183 12.8886 6.39195V4.47034H15.5459L16.7043 14.7189H1.29566Z" fill="#AA1F22"/>
</svg>
