<svg width="24" height="24" viewBox="0 0 24 24" fill="none" xmlns="http://www.w3.org/2000/svg">
<path d="M14.2857 4H18.8571C19.1602 4 19.4509 4.12041 19.6653 4.33474C19.8796 4.54906 20 4.83975 20 5.14286V9.71429C20 10.0174 19.8796 10.3081 19.6653 10.5224C19.4509 10.7367 19.1602 10.8571 18.8571 10.8571H14.2857C13.9826 10.8571 13.6919 10.7367 13.4776 10.5224C13.2633 10.3081 13.1429 10.0174 13.1429 9.71429V5.14286C13.1429 4.83975 13.2633 4.54906 13.4776 4.33474C13.6919 4.12041 13.9826 4 14.2857 4ZM5.14286 4H9.71429C10.0174 4 10.3081 4.12041 10.5224 4.33474C10.7367 4.54906 10.8571 4.83975 10.8571 5.14286V9.71429C10.8571 10.0174 10.7367 10.3081 10.5224 10.5224C10.3081 10.7367 10.0174 10.8571 9.71429 10.8571H5.14286C4.83975 10.8571 4.54906 10.7367 4.33474 10.5224C4.12041 10.3081 4 10.0174 4 9.71429V5.14286C4 4.83975 4.12041 4.54906 4.33474 4.33474C4.54906 4.12041 4.83975 4 5.14286 4ZM14.2857 13.1429H18.8571C19.1602 13.1429 19.4509 13.2633 19.6653 13.4776C19.8796 13.6919 20 13.9826 20 14.2857V18.8571C20 19.1602 19.8796 19.4509 19.6653 19.6653C19.4509 19.8796 19.1602 20 18.8571 20H14.2857C13.9826 20 13.6919 19.8796 13.4776 19.6653C13.2633 19.4509 13.1429 19.1602 13.1429 18.8571V14.2857C13.1429 13.9826 13.2633 13.6919 13.4776 13.4776C13.6919 13.2633 13.9826 13.1429 14.2857 13.1429ZM5.14286 13.1429H9.71429C10.0174 13.1429 10.3081 13.2633 10.5224 13.4776C10.7367 13.6919 10.8571 13.9826 10.8571 14.2857V18.8571C10.8571 19.1602 10.7367 19.4509 10.5224 19.6653C10.3081 19.8796 10.0174 20 9.71429 20H5.14286C4.83975 20 4.54906 19.8796 4.33474 19.6653C4.12041 19.4509 4 19.1602 4 18.8571V14.2857C4 13.9826 4.12041 13.6919 4.33474 13.4776C4.54906 13.2633 4.83975 13.1429 5.14286 13.1429Z" stroke="#020202" stroke-linecap="round" stroke-linejoin="round"/>
</svg>
