<svg width="24" height="24" viewBox="0 0 24 24" fill="none" xmlns="http://www.w3.org/2000/svg">
<path d="M22.4062 19.3312L21.0656 7.33116C21.0261 6.96406 20.8518 6.62466 20.5764 6.37872C20.3011 6.13278 19.9442 5.9978 19.575 5.99991H16.4344C16.2539 4.95468 15.71 4.0068 14.8986 3.32355C14.0873 2.64031 13.0607 2.26563 12 2.26562C10.9393 2.26563 9.91268 2.64031 9.10134 3.32355C8.29001 4.0068 7.7461 4.95468 7.56561 5.99991H4.42499C4.05577 5.9978 3.69891 6.13278 3.42352 6.37872C3.14814 6.62466 2.97383 6.96406 2.93436 7.33116L1.59374 19.3312C1.57103 19.5418 1.59266 19.755 1.65725 19.9568C1.72183 20.1586 1.82793 20.3447 1.96874 20.503C2.10907 20.6599 2.28104 20.7853 2.47333 20.871C2.66562 20.9566 2.87386 21.0006 3.08436 20.9999H20.9156C21.1261 21.0006 21.3344 20.9566 21.5266 20.871C21.7189 20.7853 21.8909 20.6599 22.0312 20.503C22.172 20.3447 22.2781 20.1586 22.3427 19.9568C22.4073 19.755 22.4289 19.5418 22.4062 19.3312ZM12 3.74991C12.6649 3.75118 13.3107 3.97264 13.8365 4.3797C14.3623 4.78675 14.7384 5.35649 14.9062 5.99991H9.09374C9.26152 5.35649 9.63768 4.78675 10.1635 4.3797C10.6893 3.97264 11.335 3.75118 12 3.74991ZM3.08436 19.4999L4.42499 7.49991H7.49999V9.74991C7.49999 9.94882 7.579 10.1396 7.71966 10.2802C7.86031 10.4209 8.05107 10.4999 8.24999 10.4999C8.4489 10.4999 8.63966 10.4209 8.78032 10.2802C8.92097 10.1396 8.99999 9.94882 8.99999 9.74991V7.49991H15V9.74991C15 9.94882 15.079 10.1396 15.2197 10.2802C15.3603 10.4209 15.5511 10.4999 15.75 10.4999C15.9489 10.4999 16.1397 10.4209 16.2803 10.2802C16.421 10.1396 16.5 9.94882 16.5 9.74991V7.49991H19.575L20.9156 19.4999H3.08436Z" fill="#020202"/>
</svg>
