<svg width="17" height="17" viewBox="0 0 17 17" fill="none" xmlns="http://www.w3.org/2000/svg">
<path fill-rule="evenodd" clip-rule="evenodd" d="M8.36865 0.5C3.95047 0.5 0.368652 4.08182 0.368652 8.5C0.368652 12.9182 3.95047 16.5 8.36865 16.5C12.7868 16.5 16.3687 12.9182 16.3687 8.5C16.3687 4.08182 12.7868 0.5 8.36865 0.5ZM8.00502 4.13636C7.81213 4.13636 7.62715 4.21299 7.49076 4.34938C7.35437 4.48577 7.27774 4.67075 7.27774 4.86364C7.27774 5.05652 7.35437 5.24151 7.49076 5.3779C7.62715 5.51429 7.81213 5.59091 8.00502 5.59091H8.36865C8.56154 5.59091 8.74652 5.51429 8.88291 5.3779C9.0193 5.24151 9.09593 5.05652 9.09593 4.86364C9.09593 4.67075 9.0193 4.48577 8.88291 4.34938C8.74652 4.21299 8.56154 4.13636 8.36865 4.13636H8.00502ZM6.91411 7.04545C6.72122 7.04545 6.53624 7.12208 6.39985 7.25847C6.26346 7.39486 6.18683 7.57984 6.18683 7.77273C6.18683 7.96561 6.26346 8.1506 6.39985 8.28699C6.53624 8.42338 6.72122 8.5 6.91411 8.5H7.64138V10.6818H6.91411C6.72122 10.6818 6.53624 10.7584 6.39985 10.8948C6.26346 11.0312 6.18683 11.2162 6.18683 11.4091C6.18683 11.602 6.26346 11.787 6.39985 11.9234C6.53624 12.0597 6.72122 12.1364 6.91411 12.1364H9.8232C10.0161 12.1364 10.2011 12.0597 10.3375 11.9234C10.4738 11.787 10.5505 11.602 10.5505 11.4091C10.5505 11.2162 10.4738 11.0312 10.3375 10.8948C10.2011 10.7584 10.0161 10.6818 9.8232 10.6818H9.09593V7.77273C9.09593 7.57984 9.0193 7.39486 8.88291 7.25847C8.74652 7.12208 8.56154 7.04545 8.36865 7.04545H6.91411Z" fill="#231F20" fill-opacity="0.6"/>
</svg>
