<svg width="20" height="20" viewBox="0 0 20 20" fill="none" xmlns="http://www.w3.org/2000/svg">
<path d="M16.4055 18.557L18.8992 16.0609C19.2039 15.7562 19.375 15.3484 19.375 14.9172C19.375 14.4859 19.2062 14.0781 18.8992 13.7734L16.2156 11.0852C15.9109 10.7805 15.5008 10.6094 15.0695 10.6094C14.6359 10.6094 14.2305 10.7781 13.9234 11.0852L11.8211 13.1852C10.7065 12.7067 9.69369 12.0194 8.8375 11.1602C7.97266 10.3 7.29063 9.29453 6.80781 8.17891L8.91016 6.07891C9.21484 5.77422 9.38594 5.36641 9.38594 4.93516C9.38673 4.72244 9.34505 4.51172 9.26335 4.31532C9.18165 4.11892 9.06157 3.9408 8.91016 3.79141L6.22656 1.10078C5.92188 0.796093 5.51172 0.624999 5.08047 0.624999C4.64688 0.624999 4.24141 0.793749 3.93438 1.10078L1.44063 3.59453C0.920313 4.11484 0.622658 4.83203 0.622658 5.56797C0.622658 5.72031 0.634376 5.86797 0.660158 6.01797C1.17109 9.12109 2.82344 12.2008 5.30781 14.6875C7.79688 17.1719 10.8766 18.8219 13.982 19.3375C14.8633 19.4852 15.7703 19.1898 16.4055 18.557ZM14.2609 17.6758C11.4977 17.2187 8.74141 15.7328 6.50313 13.4945C4.26484 11.2562 2.77891 8.50234 2.32188 5.73906C2.26328 5.39219 2.38047 5.03594 2.63125 4.78281L5.08047 2.33359L7.67969 4.93047L4.86719 7.73828L4.84609 7.75937L5.03359 8.26562C5.59796 9.80061 6.48935 11.1945 7.64598 12.3508C8.80262 13.507 10.1968 14.3979 11.732 14.9617L12.2383 15.1492L15.0672 12.318L17.6664 14.9148L15.2172 17.3641C14.9641 17.6172 14.6078 17.7344 14.2609 17.6758Z" fill="#AA1F22"/>
</svg>
