<svg width="24" height="24" viewBox="0 0 24 24" fill="none" xmlns="http://www.w3.org/2000/svg">
<path d="M21.7406 19.8752C20.3412 17.4644 18.1012 15.655 15.45 14.7939C16.7208 14.0383 17.7083 12.8863 18.2608 11.5149C18.8134 10.1436 18.9005 8.62881 18.5086 7.20321C18.1168 5.77762 17.2677 4.5201 16.0919 3.62385C14.916 2.7276 13.4785 2.24219 12 2.24219C10.5215 2.24219 9.08397 2.7276 7.90813 3.62385C6.73229 4.5201 5.88323 5.77762 5.49139 7.20321C5.09955 8.62881 5.18659 10.1436 5.73916 11.5149C6.29173 12.8863 7.27924 14.0383 8.55 14.7939C5.89885 15.655 3.65882 17.4644 2.25938 19.8752C2.20068 19.9603 2.16023 20.0567 2.14057 20.1582C2.12091 20.2598 2.12246 20.3643 2.14513 20.4652C2.16779 20.5661 2.21109 20.6612 2.27229 20.7446C2.33349 20.828 2.41127 20.8978 2.50074 20.9497C2.59022 21.0015 2.68946 21.0343 2.79222 21.046C2.89499 21.0577 2.99906 21.048 3.09789 21.0175C3.19672 20.987 3.28818 20.9365 3.36653 20.8689C3.44487 20.8014 3.5084 20.7184 3.55313 20.6252C4.41036 19.1439 5.64205 17.9141 7.12464 17.0591C8.60722 16.2042 10.2886 15.7541 12 15.7541C13.7114 15.7541 15.3928 16.2042 16.8754 17.0591C18.358 17.9141 19.5896 19.1439 20.4469 20.6252C20.4916 20.7184 20.5551 20.8014 20.6335 20.8689C20.7118 20.9365 20.8033 20.987 20.9021 21.0175C21.001 21.048 21.105 21.0577 21.2078 21.046C21.3106 21.0343 21.4098 21.0015 21.4993 20.9497C21.5887 20.8978 21.6665 20.828 21.7277 20.7446C21.7889 20.6612 21.8322 20.5661 21.8549 20.4652C21.8776 20.3643 21.8791 20.2598 21.8594 20.1582C21.8398 20.0567 21.7993 19.9603 21.7406 19.8752ZM6.75001 9.00016C6.75001 7.96181 7.05791 6.94678 7.63479 6.08342C8.21167 5.22006 9.03161 4.54715 9.99092 4.14979C10.9502 3.75243 12.0058 3.64847 13.0242 3.85104C14.0426 4.05361 14.9781 4.55363 15.7123 5.28785C16.4465 6.02208 16.9466 6.95754 17.1491 7.97594C17.3517 8.99434 17.2477 10.0499 16.8504 11.0093C16.453 11.9686 15.7801 12.7885 14.9167 13.3654C14.0534 13.9423 13.0384 14.2502 12 14.2502C10.6076 14.2502 9.27226 13.697 8.28769 12.7125C7.30313 11.7279 6.75001 10.3925 6.75001 9.00016Z" fill="#020202"/>
</svg>
