<svg width="22" height="20" viewBox="0 0 22 20" fill="none" xmlns="http://www.w3.org/2000/svg">
<path d="M21.4072 17.8312L20.0666 5.83116C20.0271 5.46406 19.8528 5.12466 19.5774 4.87872C19.302 4.63278 18.9451 4.4978 18.5759 4.49991H15.4353C15.2548 3.45468 14.7109 2.5068 13.8996 1.82355C13.0882 1.14031 12.0616 0.765625 11.0009 0.765625C9.94023 0.765625 8.91362 1.14031 8.10229 1.82355C7.29095 2.5068 6.74704 3.45468 6.56656 4.49991H3.42593C3.05672 4.4978 2.69986 4.63278 2.42447 4.87872C2.14909 5.12466 1.97478 5.46406 1.93531 5.83116L0.594681 17.8312C0.571976 18.0418 0.59361 18.255 0.658193 18.4568C0.722777 18.6586 0.82888 18.8447 0.969681 19.003C1.11001 19.1599 1.28198 19.2853 1.47427 19.371C1.66656 19.4566 1.87481 19.5006 2.08531 19.4999H19.9166C20.1271 19.5006 20.3353 19.4566 20.5276 19.371C20.7199 19.2853 20.8918 19.1599 21.0322 19.003C21.173 18.8447 21.2791 18.6586 21.3437 18.4568C21.4083 18.255 21.4299 18.0418 21.4072 17.8312ZM11.0009 2.24991C11.6659 2.25118 12.3117 2.47264 12.8374 2.8797C13.3632 3.28675 13.7394 3.85649 13.9072 4.49991H8.09468C8.26247 3.85649 8.63863 3.28675 9.16441 2.8797C9.6902 2.47264 10.336 2.25118 11.0009 2.24991ZM2.08531 17.9999L3.42593 5.99991H6.50093V8.24991C6.50093 8.44882 6.57995 8.63959 6.7206 8.78024C6.86125 8.92089 7.05202 8.99991 7.25093 8.99991C7.44984 8.99991 7.64061 8.92089 7.78126 8.78024C7.92191 8.63959 8.00093 8.44882 8.00093 8.24991V5.99991H14.0009V8.24991C14.0009 8.44882 14.0799 8.63959 14.2206 8.78024C14.3613 8.92089 14.552 8.99991 14.7509 8.99991C14.9498 8.99991 15.1406 8.92089 15.2813 8.78024C15.4219 8.63959 15.5009 8.44882 15.5009 8.24991V5.99991H18.5759L19.9166 17.9999H2.08531Z" fill="white"/>
</svg>
